Coordinates
version=1
nRows=49
nColumns=12
inDegrees=yes

Units are S.I. units (second, meters, Newtons, ...)
Angles are in degrees

endheader
time	SC_y	SC_z	SC_x	AC_y	AC_z	AC_x	GH_y	GH_z	GH_yy	EL_x	PS_y
       0.0              -41.76       -0.02901           65.7          66.79         -18.26         0.1149         -64.32          39.54         -149.4          61.91          47.11
   0.01853              -41.76       -0.02424           65.7          66.78         -18.26         0.1139         -64.32          39.53         -149.4          61.91          47.12
   0.03706              -41.75       -0.01917           65.7          66.78         -18.26         0.1129         -64.32          39.52         -149.3          61.91          47.14
   0.05558              -41.75       -0.01378           65.7          66.77         -18.26         0.1119         -64.32          39.51         -149.3          61.92          47.16
   0.07411              -41.74      -0.008043          65.71          66.76         -18.26         0.1107         -64.31          39.51         -149.2          61.92          47.18
   0.09264              -41.74      -0.001922          65.71          66.76         -18.26         0.1095         -64.31           39.5         -149.2          61.92           47.2
    0.1112              -41.73       0.004612          65.71          66.75         -18.26         0.1082         -64.31          39.49         -149.1          61.92          47.22
    0.1297              -41.73         0.0116          65.72          66.74         -18.26         0.1068          -64.3          39.48         -149.0          61.92          47.24
    0.1482              -41.72        0.01908          65.72          66.73         -18.26         0.1053          -64.3          39.47         -149.0          61.92          47.27
    0.1667              -41.71        0.02711          65.73          66.73         -18.26         0.1038          -64.3          39.45         -148.9          61.92           47.3
    0.1853               -41.7        0.03573          65.73          66.72         -18.26          0.102         -64.29          39.44         -148.8          61.93          47.33
    0.2038               -41.7          0.045          65.74          66.71         -18.26         0.1002         -64.29          39.43         -148.8          61.93          47.36
    0.2223              -41.69        0.05501          65.74          66.69         -18.26        0.09823         -64.28          39.41         -148.7          61.93          47.39
    0.2409              -41.68        0.06581          65.75          66.68         -18.26        0.09609         -64.28           39.4         -148.6          61.93          47.43
    0.2594              -41.67         0.0775          65.75          66.67         -18.26        0.09377         -64.27          39.38         -148.5          61.93          47.47
    0.2779              -41.66        0.09018          65.76          66.66         -18.26        0.09126         -64.27          39.36         -148.4          61.94          47.51
    0.2964              -41.64          0.104          65.77          66.64         -18.26        0.08853         -64.26          39.34         -148.2          61.94          47.56
     0.315              -41.63          0.119          65.78          66.62         -18.26        0.08556         -64.25          39.32         -148.1          61.94          47.61
    0.3335              -41.61         0.1354          65.79          66.61         -18.26        0.08231         -64.24           39.3         -148.0          61.95          47.66
     0.352               -41.6         0.1533           65.8          66.59         -18.26        0.07875         -64.24          39.27         -147.8          61.95          47.72
    0.3706              -41.58          0.173          65.81          66.56         -18.26        0.07485         -64.23          39.24         -147.6          61.95          47.79
    0.3891              -41.56         0.1947          65.82          66.54         -18.26        0.07055         -64.22          39.21         -147.4          61.96          47.86
    0.4076              -41.54         0.2187          65.83          66.51         -18.26         0.0658          -64.2          39.18         -147.2          61.96          47.94
    0.4261              -41.51         0.2452          65.85          66.49         -18.26        0.06055         -64.19          39.14         -147.0          61.97          48.03
    0.4447              -41.49         0.2747          65.86          66.45         -18.26         0.0547         -64.18           39.1         -146.7          61.98          48.13
    0.4632              -41.46         0.3076          65.88          66.42         -18.26        0.04818         -64.16          39.05         -146.4          61.98          48.24
    0.4817              -41.42         0.3445           65.9          66.38         -18.26        0.04087         -64.14           39.0         -146.1          61.99          48.37
    0.5002              -41.39          0.386          65.92          66.33         -18.26        0.03265         -64.12          38.94         -145.7           62.0          48.51
    0.5188              -41.34         0.4329          65.95          66.28         -18.26        0.02336          -64.1          38.87         -145.3          62.01          48.67
    0.5373               -41.3         0.4861          65.98          66.22         -18.26        0.01281         -64.08          38.79         -144.8          62.02          48.85
    0.5558              -41.24         0.5469          66.01          66.15         -18.26      0.0007738         -64.05           38.7         -144.3          62.03          49.05
    0.5744              -41.18         0.6166          66.05          66.08         -18.26       -0.01304         -64.01           38.6         -143.7          62.05          49.29
    0.5929              -41.11         0.6971          66.09          65.99         -18.26       -0.02899         -63.97          38.49         -143.0          62.06          49.56
    0.6114              -41.02         0.7906          66.14          65.88         -18.26       -0.04752         -63.93          38.35         -142.1          62.08          49.88
    0.6299              -40.92            0.9           66.2          65.76         -18.26       -0.06921         -63.88           38.2         -141.2          62.11          50.24
    0.6485               -40.8          1.029          66.27          65.62         -18.26       -0.09477         -63.82          38.01         -140.0          62.13          50.68
     0.667              -40.67          1.182          66.35          65.45         -18.26        -0.1251         -63.74          37.79         -138.7          62.17           51.2
    0.6855               -40.5          1.366          66.45          65.25         -18.26        -0.1616         -63.65          37.52         -137.0           62.2          51.82
    0.7041               -40.3          1.588          66.58          65.01         -18.26        -0.2056         -63.55           37.2         -135.1          62.25          52.57
    0.7226              -40.05           1.86          66.72          64.71         -18.26        -0.2594         -63.42          36.81         -132.7          62.31          53.49
    0.7411              -39.75          2.195          66.91          64.34         -18.26        -0.3259         -63.25          36.33         -129.7          62.38          54.62
    0.7596              -39.37          2.613          67.13          63.88         -18.26        -0.4087         -63.05          35.72         -126.0          62.46          56.03
    0.7782              -38.89           3.14          67.42           63.3         -18.26         -0.513          -62.8          34.96         -121.3          62.57          57.81
    0.7967              -38.29          3.809          67.78          62.56         -18.26        -0.6456         -62.48           34.0         -115.4          62.71          60.07
    0.8152              -37.51          4.666          68.25          61.62         -18.26        -0.8154         -62.07          32.76         -107.8          62.89          62.97
    0.8337              -36.51          5.766          68.85          60.41         -18.26         -1.033         -61.54          31.17         -98.01          63.12          66.68
    0.8523              -35.24           7.17          69.61          58.86         -18.26         -1.312         -60.86          29.15         -85.55          63.41          71.43
    0.8708              -33.64          8.936          70.57          56.92         -18.26         -1.661         -60.01           26.6         -69.88          63.78          77.39
    0.8893              -31.69          11.09          71.74          54.55         -18.27         -2.088         -58.98          23.49         -50.79          64.23          84.66
